<svg fill='white' xmlns="http://www.w3.org/2000/svg" width="1000" height="1000">
   <path d="M687.3 299.2c-3.8-3.6-9.7-3.4-13.3.4-83.1 88.2-166 176.1-249.2 264.4-3.6 3.8-9.4 3.9-13.1.2l-88.4-88.4c-3.7-3.7-9.6-3.7-13.3 0l-53.5 53.5c-3.7 3.7-3.7 9.6 0 13.3l158.1 158.1c3.7 3.7 9.6 3.6 13.1-.2C532.8 589 638.2 477.3 743.8 365.3c3.6-3.8 3.4-9.7-.4-13.3-18.8-17.7-37.4-35.2-56.1-52.8zM500 62.5C258.4 62.5 62.5 258.4 62.5 500S258.4 937.5 500 937.5 937.5 741.6 937.5 500 741.6 62.5 500 62.5zm0 806.1c-203.5 0-368.6-165.1-368.6-368.6S296.5 131.4 500 131.4c203.5 0 368.6 165.1 368.6 368.6S703.5 868.6 500 868.6z"></path>
</svg>