<svg xmlns="http://www.w3.org/2000/svg" width="1000" height="1000" fill='white'>
   <path d="M703.4 349.3c6-6.1 6-16.1-.1-22.2l-33.6-33.9c-6-6.1-15.8-6-21.9.1-45.4 46.3-90.8 92.5-136.8 139.3-6 6.1-15.8 6.1-21.9 0-45.8-46.5-91.4-92.8-136.9-139.2-6-6.1-15.8-6.1-21.8.1-11 11.4-22 22.8-33.2 34.4-5.9 6.2-5.9 16.2.2 22.3 44.4 45.2 90 91.7 136.3 138.8 6 6.1 6 16.1 0 22.2-45.9 46.7-91.7 93.3-137.1 139.5-6 6.1-5.9 16.1.1 22.1l33.7 33.8c6.1 6.1 15.9 6.1 22 0l136.8-138.9c6-6.1 15.8-6.1 21.9 0 45.6 46.4 90.9 92.6 136.8 139.1 6 6.1 15.8 6.1 21.9 0 11.3-11.4 22.3-22.7 33.5-34 6-6.1 6-16.1 0-22.2-45-45.8-90.5-92.2-136.8-139.3-6-6.1-6-16.1 0-22.3 45.8-46.8 91.5-93.4 136.9-139.7zM500 62.5C258.4 62.5 62.5 258.4 62.5 500S258.4 937.5 500 937.5 937.5 741.6 937.5 500 741.6 62.5 500 62.5zm0 806.1c-203.5 0-368.6-165.1-368.6-368.6S296.5 131.4 500 131.4 868.6 296.5 868.6 500 703.5 868.6 500 868.6z"></path>
</svg>